<mxfile host="app.diagrams.net" modified="2024-04-03T05:52:25.490Z" agent="Mozilla/5.0 (Windows NT 10.0; Win64; x64) AppleWebKit/537.36 (KHTML, like Gecko) Chrome/123.0.0.0 Safari/537.36" etag="tqT_BIhfMSSsx2tPuWG2" version="24.2.1" type="device">
  <diagram id="C5RBs43oDa-KdzZeNtuy" name="Page-1">
    <mxGraphModel dx="1050" dy="565" grid="1" gridSize="10" guides="1" tooltips="1" connect="1" arrows="1" fold="1" page="1" pageScale="1" pageWidth="827" pageHeight="1169" math="0" shadow="0">
      <root>
        <mxCell id="WIyWlLk6GJQsqaUBKTNV-0" />
        <mxCell id="WIyWlLk6GJQsqaUBKTNV-1" parent="WIyWlLk6GJQsqaUBKTNV-0" />
        <mxCell id="LAYtUdzSqU6OUyYixpUa-25" style="edgeStyle=orthogonalEdgeStyle;rounded=0;orthogonalLoop=1;jettySize=auto;html=1;exitX=0.5;exitY=1;exitDx=0;exitDy=0;exitPerimeter=0;" edge="1" parent="WIyWlLk6GJQsqaUBKTNV-1" source="LAYtUdzSqU6OUyYixpUa-0" target="LAYtUdzSqU6OUyYixpUa-1">
          <mxGeometry relative="1" as="geometry" />
        </mxCell>
        <mxCell id="LAYtUdzSqU6OUyYixpUa-0" value="Begin" style="strokeWidth=2;html=1;shape=mxgraph.flowchart.terminator;whiteSpace=wrap;" vertex="1" parent="WIyWlLk6GJQsqaUBKTNV-1">
          <mxGeometry x="350" y="40" width="100" height="60" as="geometry" />
        </mxCell>
        <mxCell id="LAYtUdzSqU6OUyYixpUa-21" style="edgeStyle=orthogonalEdgeStyle;rounded=0;orthogonalLoop=1;jettySize=auto;html=1;exitX=0.5;exitY=1;exitDx=0;exitDy=0;entryX=0.5;entryY=0;entryDx=0;entryDy=0;" edge="1" parent="WIyWlLk6GJQsqaUBKTNV-1" source="LAYtUdzSqU6OUyYixpUa-1" target="LAYtUdzSqU6OUyYixpUa-7">
          <mxGeometry relative="1" as="geometry" />
        </mxCell>
        <mxCell id="LAYtUdzSqU6OUyYixpUa-1" value="Input math" style="shape=parallelogram;html=1;strokeWidth=2;perimeter=parallelogramPerimeter;whiteSpace=wrap;rounded=1;arcSize=12;size=0.23;" vertex="1" parent="WIyWlLk6GJQsqaUBKTNV-1">
          <mxGeometry x="350" y="130" width="100" height="60" as="geometry" />
        </mxCell>
        <mxCell id="LAYtUdzSqU6OUyYixpUa-49" style="edgeStyle=orthogonalEdgeStyle;rounded=0;orthogonalLoop=1;jettySize=auto;html=1;exitX=0.5;exitY=1;exitDx=0;exitDy=0;entryX=0.5;entryY=0;entryDx=0;entryDy=0;" edge="1" parent="WIyWlLk6GJQsqaUBKTNV-1" source="LAYtUdzSqU6OUyYixpUa-2" target="LAYtUdzSqU6OUyYixpUa-13">
          <mxGeometry relative="1" as="geometry" />
        </mxCell>
        <mxCell id="LAYtUdzSqU6OUyYixpUa-2" value="Input physics" style="shape=parallelogram;html=1;strokeWidth=2;perimeter=parallelogramPerimeter;whiteSpace=wrap;rounded=1;arcSize=12;size=0.23;" vertex="1" parent="WIyWlLk6GJQsqaUBKTNV-1">
          <mxGeometry x="340" y="700" width="120" height="60" as="geometry" />
        </mxCell>
        <mxCell id="LAYtUdzSqU6OUyYixpUa-30" style="edgeStyle=orthogonalEdgeStyle;rounded=0;orthogonalLoop=1;jettySize=auto;html=1;" edge="1" parent="WIyWlLk6GJQsqaUBKTNV-1" source="LAYtUdzSqU6OUyYixpUa-4" target="LAYtUdzSqU6OUyYixpUa-14">
          <mxGeometry relative="1" as="geometry">
            <Array as="points">
              <mxPoint x="400" y="480" />
              <mxPoint x="400" y="480" />
            </Array>
          </mxGeometry>
        </mxCell>
        <mxCell id="LAYtUdzSqU6OUyYixpUa-4" value="Input chemistry" style="shape=parallelogram;html=1;strokeWidth=2;perimeter=parallelogramPerimeter;whiteSpace=wrap;rounded=1;arcSize=12;size=0.23;" vertex="1" parent="WIyWlLk6GJQsqaUBKTNV-1">
          <mxGeometry x="315" y="410" width="150" height="60" as="geometry" />
        </mxCell>
        <mxCell id="LAYtUdzSqU6OUyYixpUa-24" style="edgeStyle=orthogonalEdgeStyle;rounded=0;orthogonalLoop=1;jettySize=auto;html=1;entryX=0;entryY=0.5;entryDx=0;entryDy=0;" edge="1" parent="WIyWlLk6GJQsqaUBKTNV-1" source="LAYtUdzSqU6OUyYixpUa-7" target="LAYtUdzSqU6OUyYixpUa-20">
          <mxGeometry relative="1" as="geometry">
            <mxPoint x="520" y="295" as="targetPoint" />
          </mxGeometry>
        </mxCell>
        <mxCell id="LAYtUdzSqU6OUyYixpUa-7" value="if math &amp;gt;= 0 &amp;amp;&amp;amp; math &amp;lt;=10 &amp;amp;&amp;amp; math is a number" style="rhombus;whiteSpace=wrap;html=1;strokeWidth=2;rounded=1;arcSize=12;" vertex="1" parent="WIyWlLk6GJQsqaUBKTNV-1">
          <mxGeometry x="315" y="230" width="170" height="130" as="geometry" />
        </mxCell>
        <mxCell id="LAYtUdzSqU6OUyYixpUa-54" style="edgeStyle=orthogonalEdgeStyle;rounded=0;orthogonalLoop=1;jettySize=auto;html=1;" edge="1" parent="WIyWlLk6GJQsqaUBKTNV-1" source="LAYtUdzSqU6OUyYixpUa-13" target="LAYtUdzSqU6OUyYixpUa-46">
          <mxGeometry relative="1" as="geometry" />
        </mxCell>
        <mxCell id="LAYtUdzSqU6OUyYixpUa-57" style="edgeStyle=orthogonalEdgeStyle;rounded=0;orthogonalLoop=1;jettySize=auto;html=1;entryX=0.5;entryY=0;entryDx=0;entryDy=0;" edge="1" parent="WIyWlLk6GJQsqaUBKTNV-1" source="LAYtUdzSqU6OUyYixpUa-13" target="LAYtUdzSqU6OUyYixpUa-17">
          <mxGeometry relative="1" as="geometry" />
        </mxCell>
        <mxCell id="LAYtUdzSqU6OUyYixpUa-13" value="if physics &amp;gt;= 0 &amp;amp;&amp;amp; physics&amp;nbsp;&amp;lt;=10 &amp;amp;&amp;amp; physics&amp;nbsp;is a number" style="rhombus;whiteSpace=wrap;html=1;strokeWidth=2;rounded=1;arcSize=12;" vertex="1" parent="WIyWlLk6GJQsqaUBKTNV-1">
          <mxGeometry x="320" y="805" width="160" height="140" as="geometry" />
        </mxCell>
        <mxCell id="LAYtUdzSqU6OUyYixpUa-35" style="edgeStyle=orthogonalEdgeStyle;rounded=0;orthogonalLoop=1;jettySize=auto;html=1;" edge="1" parent="WIyWlLk6GJQsqaUBKTNV-1" source="LAYtUdzSqU6OUyYixpUa-14" target="LAYtUdzSqU6OUyYixpUa-33">
          <mxGeometry relative="1" as="geometry" />
        </mxCell>
        <mxCell id="LAYtUdzSqU6OUyYixpUa-37" style="edgeStyle=orthogonalEdgeStyle;rounded=0;orthogonalLoop=1;jettySize=auto;html=1;entryX=0.5;entryY=0;entryDx=0;entryDy=0;" edge="1" parent="WIyWlLk6GJQsqaUBKTNV-1" source="LAYtUdzSqU6OUyYixpUa-14" target="LAYtUdzSqU6OUyYixpUa-2">
          <mxGeometry relative="1" as="geometry" />
        </mxCell>
        <mxCell id="LAYtUdzSqU6OUyYixpUa-14" value="if chemistry&amp;nbsp;&amp;gt;= 0 &amp;amp;&amp;amp; chemistry&amp;nbsp;&amp;lt;=10 &amp;amp;&amp;amp; chemistry&amp;nbsp;is a number" style="rhombus;whiteSpace=wrap;html=1;strokeWidth=2;rounded=1;arcSize=12;" vertex="1" parent="WIyWlLk6GJQsqaUBKTNV-1">
          <mxGeometry x="315" y="510" width="170" height="150" as="geometry" />
        </mxCell>
        <mxCell id="LAYtUdzSqU6OUyYixpUa-19" style="edgeStyle=orthogonalEdgeStyle;rounded=0;orthogonalLoop=1;jettySize=auto;html=1;" edge="1" parent="WIyWlLk6GJQsqaUBKTNV-1" source="LAYtUdzSqU6OUyYixpUa-17" target="LAYtUdzSqU6OUyYixpUa-18">
          <mxGeometry relative="1" as="geometry" />
        </mxCell>
        <mxCell id="LAYtUdzSqU6OUyYixpUa-17" value="average = (math + physics + chemsitry)/3" style="rounded=1;whiteSpace=wrap;html=1;absoluteArcSize=1;arcSize=14;strokeWidth=2;" vertex="1" parent="WIyWlLk6GJQsqaUBKTNV-1">
          <mxGeometry x="270" y="980" width="260" height="100" as="geometry" />
        </mxCell>
        <mxCell id="LAYtUdzSqU6OUyYixpUa-18" value="End" style="strokeWidth=2;html=1;shape=mxgraph.flowchart.terminator;whiteSpace=wrap;" vertex="1" parent="WIyWlLk6GJQsqaUBKTNV-1">
          <mxGeometry x="350" y="1130" width="100" height="60" as="geometry" />
        </mxCell>
        <mxCell id="LAYtUdzSqU6OUyYixpUa-29" style="edgeStyle=orthogonalEdgeStyle;rounded=0;orthogonalLoop=1;jettySize=auto;html=1;entryX=1;entryY=0.5;entryDx=0;entryDy=0;" edge="1" parent="WIyWlLk6GJQsqaUBKTNV-1" source="LAYtUdzSqU6OUyYixpUa-20" target="LAYtUdzSqU6OUyYixpUa-1">
          <mxGeometry relative="1" as="geometry">
            <Array as="points">
              <mxPoint x="660" y="160" />
            </Array>
          </mxGeometry>
        </mxCell>
        <mxCell id="LAYtUdzSqU6OUyYixpUa-20" value="try again" style="shape=parallelogram;html=1;strokeWidth=2;perimeter=parallelogramPerimeter;whiteSpace=wrap;rounded=1;arcSize=12;size=0.23;" vertex="1" parent="WIyWlLk6GJQsqaUBKTNV-1">
          <mxGeometry x="550" y="265" width="200" height="60" as="geometry" />
        </mxCell>
        <mxCell id="LAYtUdzSqU6OUyYixpUa-22" style="edgeStyle=orthogonalEdgeStyle;rounded=0;orthogonalLoop=1;jettySize=auto;html=1;exitX=0.5;exitY=1;exitDx=0;exitDy=0;entryX=0.567;entryY=0;entryDx=0;entryDy=0;entryPerimeter=0;" edge="1" parent="WIyWlLk6GJQsqaUBKTNV-1" source="LAYtUdzSqU6OUyYixpUa-7" target="LAYtUdzSqU6OUyYixpUa-4">
          <mxGeometry relative="1" as="geometry" />
        </mxCell>
        <mxCell id="LAYtUdzSqU6OUyYixpUa-23" value="True" style="text;html=1;align=center;verticalAlign=middle;resizable=0;points=[];autosize=1;strokeColor=none;fillColor=none;" vertex="1" parent="WIyWlLk6GJQsqaUBKTNV-1">
          <mxGeometry x="400" y="360" width="50" height="30" as="geometry" />
        </mxCell>
        <mxCell id="LAYtUdzSqU6OUyYixpUa-31" value="False" style="text;html=1;align=center;verticalAlign=middle;resizable=0;points=[];autosize=1;strokeColor=none;fillColor=none;" vertex="1" parent="WIyWlLk6GJQsqaUBKTNV-1">
          <mxGeometry x="495" y="258" width="50" height="30" as="geometry" />
        </mxCell>
        <mxCell id="LAYtUdzSqU6OUyYixpUa-36" style="edgeStyle=orthogonalEdgeStyle;rounded=0;orthogonalLoop=1;jettySize=auto;html=1;exitX=0.5;exitY=0;exitDx=0;exitDy=0;entryX=1;entryY=0.5;entryDx=0;entryDy=0;" edge="1" parent="WIyWlLk6GJQsqaUBKTNV-1" source="LAYtUdzSqU6OUyYixpUa-33" target="LAYtUdzSqU6OUyYixpUa-4">
          <mxGeometry relative="1" as="geometry">
            <Array as="points">
              <mxPoint x="650" y="440" />
            </Array>
          </mxGeometry>
        </mxCell>
        <mxCell id="LAYtUdzSqU6OUyYixpUa-33" value="try again" style="shape=parallelogram;html=1;strokeWidth=2;perimeter=parallelogramPerimeter;whiteSpace=wrap;rounded=1;arcSize=12;size=0.23;" vertex="1" parent="WIyWlLk6GJQsqaUBKTNV-1">
          <mxGeometry x="550" y="555" width="200" height="60" as="geometry" />
        </mxCell>
        <mxCell id="LAYtUdzSqU6OUyYixpUa-34" value="False" style="text;html=1;align=center;verticalAlign=middle;resizable=0;points=[];autosize=1;strokeColor=none;fillColor=none;" vertex="1" parent="WIyWlLk6GJQsqaUBKTNV-1">
          <mxGeometry x="500" y="550" width="50" height="30" as="geometry" />
        </mxCell>
        <mxCell id="LAYtUdzSqU6OUyYixpUa-38" value="True" style="text;html=1;align=center;verticalAlign=middle;resizable=0;points=[];autosize=1;strokeColor=none;fillColor=none;" vertex="1" parent="WIyWlLk6GJQsqaUBKTNV-1">
          <mxGeometry x="389" y="660" width="50" height="30" as="geometry" />
        </mxCell>
        <mxCell id="LAYtUdzSqU6OUyYixpUa-56" style="edgeStyle=orthogonalEdgeStyle;rounded=0;orthogonalLoop=1;jettySize=auto;html=1;exitX=0.5;exitY=0;exitDx=0;exitDy=0;entryX=1;entryY=0.5;entryDx=0;entryDy=0;" edge="1" parent="WIyWlLk6GJQsqaUBKTNV-1" source="LAYtUdzSqU6OUyYixpUa-46" target="LAYtUdzSqU6OUyYixpUa-2">
          <mxGeometry relative="1" as="geometry">
            <Array as="points">
              <mxPoint x="650" y="730" />
            </Array>
          </mxGeometry>
        </mxCell>
        <mxCell id="LAYtUdzSqU6OUyYixpUa-46" value="try again" style="shape=parallelogram;html=1;strokeWidth=2;perimeter=parallelogramPerimeter;whiteSpace=wrap;rounded=1;arcSize=12;size=0.23;" vertex="1" parent="WIyWlLk6GJQsqaUBKTNV-1">
          <mxGeometry x="550" y="845" width="200" height="60" as="geometry" />
        </mxCell>
        <mxCell id="LAYtUdzSqU6OUyYixpUa-47" value="False" style="text;html=1;align=center;verticalAlign=middle;resizable=0;points=[];autosize=1;strokeColor=none;fillColor=none;" vertex="1" parent="WIyWlLk6GJQsqaUBKTNV-1">
          <mxGeometry x="500" y="845" width="50" height="30" as="geometry" />
        </mxCell>
        <mxCell id="LAYtUdzSqU6OUyYixpUa-58" value="True" style="text;html=1;align=center;verticalAlign=middle;resizable=0;points=[];autosize=1;strokeColor=none;fillColor=none;" vertex="1" parent="WIyWlLk6GJQsqaUBKTNV-1">
          <mxGeometry x="395" y="948" width="50" height="30" as="geometry" />
        </mxCell>
      </root>
    </mxGraphModel>
  </diagram>
</mxfile>
